# xmcd CD database file
#
# Track frame offsets:
#	187
#	15342
#	31572
#	46287
#	57622
#	76989
#	92567
#	104399
#	113972
#	125417
#
# Disc length: 1853 seconds
#
# Revision: 9
# Processed by: cddbd v1.5.2PL0 Copyright (c) Steve Scherf et al.
# Submitted via: CDex 1.50
#
DISCID=72073b0a
DTITLE=George Strait - Lead On
DYEAR=1994
DGENRE=Country
TTITLE0=You Can't Make A Heart Love Somebody
TTITLE1=Adalida
TTITLE2=I Met A Friend Of Yours Today
TTITLE3=Nobody Has To Get Hurt
TTITLE4=Down Louisiana Way
TTITLE5=Lead On
TTITLE6=What Am I Waiting For
TTITLE7=The Big One
TTITLE8=I'll Always Be Loving You
TTITLE9=No One But You
EXTD=YEAR: 1994
EXTT0=
EXTT1=
EXTT2=
EXTT3=
EXTT4=
EXTT5=
EXTT6=
EXTT7=
EXTT8=
EXTT9=
PLAYORDER=
